<svg id="Layer_1" data-name="Layer 1" xmlns="http://www.w3.org/2000/svg" viewBox="0 0 184.729 200">
  <defs>
    <style>
      .cls-1 {
        fill: #00a0d2;
      }

      .cls-2 {
        fill: none;
      }

      .cls-2, .cls-3 {
        stroke: #f2f2f2;
        stroke-miterlimit: 10;
      }

      .cls-3 {
        fill: #fff;
      }
    </style>
  </defs>
  <title>084a0812-d428-4f61-825b-df5991bdb2e4</title>
  <path class="cls-1" d="M74.729,74.808A34.847,34.847,0,0,1,109.537,40h25.192s-12.426,8-16,20h-9.192A14.824,14.824,0,0,0,94.729,74.808V79h18V96h-18v26h-20ZM152.116,127h-97.5a12.613,12.613,0,0,1-10.823-19.09L78.83,49.359a32.25,32.25,0,0,0,.386-32.831A32.249,32.249,0,0,0,50.845,0H0V20H50.845A12.613,12.613,0,0,1,61.668,39.09L26.629,97.641A32.613,32.613,0,0,0,54.614,147h97.5a12.627,12.627,0,0,1,12.613,12.613V200h20V159.613A32.65,32.65,0,0,0,152.116,127Zm32.613-55v35.016c0,14.984-20,14.984-20,14.984V105h-24v17h-20V72a32,32,0,1,1,64,0Zm-20,13V72a12,12,0,0,0-24,0V85Z"/>
  <g>
    <path class="cls-2" d="M160.729,200V159.613A8.623,8.623,0,0,0,152.116,151h-97.5A36.613,36.613,0,0,1,23.2,95.587L58.235,37.036A8.613,8.613,0,0,0,50.845,24H0"/>
    <path class="cls-2" d="M156.729,200V159.613A4.618,4.618,0,0,0,152.116,155h-97.5a40.613,40.613,0,0,1-34.85-61.468L54.8,34.981a4.5,4.5,0,0,0,.054-4.644A4.446,4.446,0,0,0,50.845,28H0"/>
    <path class="cls-2" d="M152.729,200V159.613a.629.629,0,0,0-.613-.613h-97.5A44.613,44.613,0,0,1,16.332,91.479L51.371,32.928A.613.613,0,0,0,50.845,32H0"/>
    <path class="cls-2" d="M148.729,200V163H54.614A48.614,48.614,0,0,1,12.9,89.424L44.871,36H0"/>
    <circle class="cls-3" cx="13.729" cy="36" r="2.5"/>
    <circle class="cls-3" cx="34.729" cy="32" r="2.5"/>
    <circle class="cls-3" cx="43.729" cy="54" r="2.5"/>
    <circle class="cls-3" cx="24.729" cy="69" r="2.5"/>
    <circle class="cls-3" cx="21.729" cy="91" r="2.5"/>
    <circle class="cls-3" cx="14.729" cy="135" r="2.5"/>
    <circle class="cls-3" cx="41.729" cy="153" r="2.5"/>
    <circle class="cls-3" cx="82.729" cy="151" r="2.5"/>
    <circle class="cls-3" cx="117.729" cy="159" r="2.5"/>
    <circle class="cls-3" cx="143.729" cy="155" r="2.5"/>
    <circle class="cls-3" cx="24.729" cy="24" r="2.5"/>
  </g>
</svg>
