<svg id="Layer_1" data-name="Layer 1" xmlns="http://www.w3.org/2000/svg" viewBox="0 0 24 24">
  <defs>
    <style>
      .cls-1 {
        fill: none;
      }

      .cls-2 {
        fill: #fff;
      }
    </style>
  </defs>
  <title>9bcf3795-af7e-48c9-9f9f-451300c1d108</title>
  <path class="cls-1" d="M0,0H24V24H0Z"/>
  <path class="cls-2" d="M11,18h2V16H11ZM12,2A10,10,0,1,0,22,12,10,10,0,0,0,12,2Zm0,18a8,8,0,1,1,8-8A8.011,8.011,0,0,1,12,20ZM12,6a4,4,0,0,0-4,4h2a2,2,0,0,1,4,0c0,2-3,1.75-3,5h2c0-2.25,3-2.5,3-5A4,4,0,0,0,12,6Z"/>
</svg>
