<svg id="Layer_1" data-name="Layer 1" xmlns="http://www.w3.org/2000/svg" viewBox="0 0 287.658 74.793">
  <defs>
    <style>
      .cls-1 {
        fill: #fff;
      }
    </style>
  </defs>
  <title>f3791481-3e31-409c-b1bd-69ce16273ba2</title>
  <g>
    <path class="cls-1" d="M0,2.518H14.589V75.872H0Z" transform="translate(0 -2.518)"/>
    <path class="cls-1" d="M21.367,39.092c.822-13.664,13.048-17.773,24.965-17.773,10.582,0,23.322,2.363,23.322,15.1V64.057c0,4.829.514,9.658,1.849,11.815H56.709a21.7,21.7,0,0,1-1.028-5.137c-4.623,4.829-11.4,6.575-17.876,6.575-10.069,0-18.082-5.034-18.082-15.924,0-12.021,9.041-14.9,18.082-16.13,8.937-1.335,17.26-1.028,17.26-6.986,0-6.267-4.315-7.192-9.452-7.192-5.548,0-9.144,2.261-9.658,8.014Zm33.7,10.787c-2.466,2.158-7.6,2.261-12.123,3.083-4.521.925-8.63,2.466-8.63,7.808,0,5.446,4.212,6.781,8.938,6.781,11.4,0,11.815-9.041,11.815-12.226Z" transform="translate(0 -2.518)"/>
    <path class="cls-1" d="M76.84,2.518H91.428V29.229h.206c3.6-5.445,10.171-7.911,16.746-7.911,10.582,0,21.986,8.527,21.986,27.945,0,19.52-11.4,28.047-21.986,28.047-7.808,0-14.281-2.363-17.466-8.219H90.71v6.781H76.84Zm26.507,29.794c-8.63,0-12.432,8.116-12.432,17.054,0,8.836,3.8,16.952,12.432,16.952s12.431-8.116,12.431-16.952C115.777,40.428,111.976,32.312,103.346,32.312Z" transform="translate(0 -2.518)"/>
    <path class="cls-1" d="M161.284,21.319c16.747,0,27.534,11.1,27.534,28.047,0,16.85-10.787,27.945-27.534,27.945-16.643,0-27.43-11.1-27.43-27.945C133.853,32.415,144.641,21.319,161.284,21.319Zm0,45c9.966,0,12.945-8.527,12.945-16.952,0-8.527-2.98-17.054-12.945-17.054-9.863,0-12.842,8.527-12.842,17.054C148.442,57.79,151.421,66.318,161.284,66.318Z" transform="translate(0 -2.518)"/>
    <path class="cls-1" d="M192.136,22.757h13.87V32.62h.205a18.782,18.782,0,0,1,16.953-11.3,10.9,10.9,0,0,1,3.185.514V35.394a26.654,26.654,0,0,0-5.24-.514c-10.685,0-14.384,7.706-14.384,17.055V75.872H192.136Z" transform="translate(0 -2.518)"/>
  </g>
  <polygon class="cls-1" points="263.624 30.443 284.128 0.016 266.127 0.012 254.622 17.085 263.624 30.443"/>
  <polygon class="cls-1" points="234.719 73.344 261.187 34.06 238.245 0.016 238.33 0.016 238.327 0.012 220.302 0.016 243.214 34.014 216.715 73.344 234.728 73.344 234.739 73.344 234.719 73.344"/>
  <polygon class="cls-1" points="263.624 37.675 254.652 50.988 269.726 73.344 287.658 73.344 263.624 37.675"/>
</svg>
