<svg id="Layer_1" data-name="Layer 1" xmlns="http://www.w3.org/2000/svg" viewBox="0 0 96.829 38.058">
  <defs>
    <style>
      .cls-1 {
        fill: #00a0d2;
      }
    </style>
  </defs>
  <title>25381896-5c53-4753-a402-80a40a14cc7d</title>
  <g>
    <path class="cls-1" d="M2.046,30.751H3.075V31.5H2.046v3.209c0,.39.109.459.64.459h.39v.75H2.426c-.88,0-1.229-.18-1.229-1.129V31.5H.316v-.749H1.2V29.2h.85Z"/>
    <path class="cls-1" d="M3.985,30.751h.8V31.84h.021a1.877,1.877,0,0,1,1.9-1.209v.9c-1.369,0-1.869.779-1.869,2.089v2.3h-.85Z"/>
    <path class="cls-1" d="M11.737,35.918h-.8V35.1h-.021a1.8,1.8,0,0,1-1.679.939c-1.359,0-1.779-.779-1.779-1.889v-3.4h.85v3.5a.973.973,0,0,0,1.05,1.039,1.452,1.452,0,0,0,1.528-1.619V30.751h.85Z"/>
    <path class="cls-1" d="M13.618,34.289c.03.76.689,1,1.39,1,.529,0,1.249-.12,1.249-.77s-.84-.77-1.689-.959-1.688-.47-1.688-1.46c0-1.039,1.029-1.469,1.929-1.469,1.14,0,2.049.359,2.119,1.619h-.85c-.061-.659-.64-.869-1.2-.869-.51,0-1.1.14-1.1.659,0,.609.9.71,1.689.9.849.19,1.688.47,1.688,1.47,0,1.229-1.149,1.629-2.2,1.629-1.16,0-2.14-.47-2.189-1.749Z"/>
    <path class="cls-1" d="M19.349,30.751h1.029V31.5H19.349v3.209c0,.39.109.459.64.459h.39v.75h-.649c-.88,0-1.229-.18-1.229-1.129V31.5h-.88v-.749h.88V29.2h.85Z"/>
    <path class="cls-1" d="M28.507,34.279A2.083,2.083,0,0,1,26.3,36.038c-1.649,0-2.429-1.14-2.479-2.719a2.488,2.488,0,0,1,2.429-2.688c1.829,0,2.389,1.709,2.339,2.958H24.719a1.522,1.522,0,0,0,1.608,1.7,1.246,1.246,0,0,0,1.34-1.009Zm-.819-1.439A1.487,1.487,0,0,0,26.2,31.381a1.47,1.47,0,0,0-1.479,1.459Z"/>
    <path class="cls-1" d="M29.574,30.751h.8v.76h.02a1.9,1.9,0,0,1,1.669-.88,1.371,1.371,0,0,1,1.42.88,1.911,1.911,0,0,1,1.619-.88c1.029,0,1.719.43,1.719,1.5v3.788h-.85V32.53c0-.64-.17-1.149-1-1.149a1.251,1.251,0,0,0-1.35,1.319v3.218h-.85V32.53c0-.67-.21-1.149-.97-1.149A1.393,1.393,0,0,0,30.424,32.7v3.218h-.85Z"/>
    <path class="cls-1" d="M38.171,30.751h.85v.7h.02a1.74,1.74,0,0,1,1.649-.819,2.421,2.421,0,0,1,2.379,2.719,2.387,2.387,0,0,1-2.359,2.688,1.98,1.98,0,0,1-1.669-.81h-.02V37.9h-.85Zm2.4.63c-1.14,0-1.579.979-1.579,1.948,0,1.02.46,1.959,1.629,1.959s1.549-.989,1.549-2C42.168,32.32,41.669,31.381,40.569,31.381Z"/>
    <path class="cls-1" d="M44.176,28.782h.85v7.136h-.85Z"/>
    <path class="cls-1" d="M48.61,30.631a2.452,2.452,0,0,1,2.509,2.709,2.515,2.515,0,1,1-5.018,0A2.452,2.452,0,0,1,48.61,30.631Zm0,4.657c.89,0,1.609-.7,1.609-1.948s-.72-1.959-1.609-1.959S47,32.08,47,33.34,47.72,35.288,48.61,35.288Z"/>
    <path class="cls-1" d="M54.032,36.607c-.391,1.01-.74,1.38-1.5,1.38a1.681,1.681,0,0,1-.589-.091v-.779a1.734,1.734,0,0,0,.5.12.734.734,0,0,0,.7-.47l.35-.88-2.049-5.137H52.4l1.51,4.228h.02l1.449-4.228h.9Z"/>
    <path class="cls-1" d="M64.9,35.918H64l-1.05-4.107h-.02l-1.04,4.107h-.919l-1.659-5.167h.939l1.169,4.228h.021l1.039-4.228h.93l1.079,4.228h.021l1.159-4.228h.88Z"/>
    <path class="cls-1" d="M69.489,30.631A2.452,2.452,0,0,1,72,33.34a2.515,2.515,0,1,1-5.018,0A2.452,2.452,0,0,1,69.489,30.631Zm0,4.657c.89,0,1.609-.7,1.609-1.948s-.72-1.959-1.609-1.959-1.608.7-1.608,1.959S68.6,35.288,69.489,35.288Z"/>
    <path class="cls-1" d="M73.04,30.751h.8V31.84h.021a1.877,1.877,0,0,1,1.9-1.209v.9c-1.369,0-1.869.779-1.869,2.089v2.3h-.85Z"/>
    <path class="cls-1" d="M76.54,28.782h.85V33.01l2.358-2.259h1.14L78.839,32.63l2.2,3.288h-1.08l-1.769-2.7-.8.739v1.959h-.85Z"/>
  </g>
  <g>
    <path class="cls-1" d="M6.568,12.921c.287-4.768,4.553-6.2,8.712-6.2,3.692,0,8.138.825,8.138,5.27v9.644a9.5,9.5,0,0,0,.645,4.123H18.9a7.566,7.566,0,0,1-.359-1.793A8.5,8.5,0,0,1,12.3,26.258c-3.514,0-6.31-1.757-6.31-5.557,0-4.195,3.155-5.2,6.31-5.629,3.119-.467,6.023-.359,6.023-2.438,0-2.187-1.506-2.51-3.3-2.51-1.936,0-3.191.789-3.37,2.8Zm11.759,3.765c-.86.753-2.653.788-4.23,1.075-1.577.322-3.012.86-3.012,2.725,0,1.9,1.47,2.366,3.119,2.366,3.98,0,4.123-3.155,4.123-4.267Z"/>
    <path class="cls-1" d="M24.877.158h5.091V9.48h.072a6.843,6.843,0,0,1,5.843-2.76c3.693,0,7.673,2.976,7.673,9.752,0,6.812-3.98,9.788-7.673,9.788-2.725,0-4.983-.824-6.095-2.868h-.072v2.366h-4.84Zm9.249,10.4c-3.011,0-4.338,2.833-4.338,5.952,0,3.083,1.327,5.916,4.338,5.916s4.338-2.832,4.338-5.916C38.465,13.388,37.138,10.555,34.126,10.555Z"/>
    <path class="cls-1" d="M53.677,6.719c5.844,0,9.608,3.872,9.608,9.788,0,5.88-3.764,9.752-9.608,9.752-5.808,0-9.572-3.872-9.572-9.752C44.1,10.591,47.869,6.719,53.677,6.719Zm0,15.7c3.478,0,4.517-2.976,4.517-5.916,0-2.976-1.04-5.952-4.517-5.952-3.442,0-4.481,2.976-4.481,5.952C49.2,19.447,50.235,22.422,53.677,22.422Z"/>
    <path class="cls-1" d="M63.806,7.221h4.84v3.442h.072a6.419,6.419,0,0,1,3.371-3.388,6.308,6.308,0,0,1,2.544-.556,3.8,3.8,0,0,1,1.111.179v4.733a9.283,9.283,0,0,0-1.829-.179c-3.729,0-5.019,2.689-5.019,5.952v8.353H63.806Z"/>
    <path class="cls-1" d="M81.449,12.348,73.2.158h6.525l5.019,8.174L89.945,0h6.166L87.9,12.384l8.927,13.373h-6.7L84.531,16.9l-5.7,9.105H72.485Z"/>
    <path class="cls-1" d="M0,.157H5.1v25.66H0Z"/>
  </g>
</svg>
